<?xml version="1.0" standalone="no"?>
<!DOCTYPE svg PUBLIC "-//W3C//DTD SVG 20010904//EN"
 "http://www.w3.org/TR/2001/REC-SVG-20010904/DTD/svg10.dtd">
<svg version="1.0" xmlns="http://www.w3.org/2000/svg"
 width="187.000000pt" height="174.000000pt" viewBox="0 0 187.000000 174.000000"
 preserveAspectRatio="xMidYMid meet">

<g transform="translate(0.000000,174.000000) scale(0.100000,-0.100000)"
fill="#000000" stroke="none">
<path d="M710 883 c-129 -207 -236 -380 -238 -385 -2 -4 45 -8 105 -8 l108 0
130 205 c72 113 132 205 135 205 7 0 80 -115 80 -126 0 -6 -20 -43 -45 -83
-25 -40 -45 -75 -45 -77 0 -2 45 -4 100 -4 l99 0 41 -60 41 -60 105 0 c58 0
104 4 102 8 -7 20 -473 762 -478 762 -3 0 -111 -170 -240 -377z"/>
</g>
</svg>
